<?xml version="1.0" encoding="UTF-8" standalone="no"?>
<!-- Created with Inkscape (http://www.inkscape.org/) -->

<svg
   xmlns:dc="http://purl.org/dc/elements/1.1/"
   xmlns:cc="http://creativecommons.org/ns#"
   xmlns:rdf="http://www.w3.org/1999/02/22-rdf-syntax-ns#"
   xmlns:svg="http://www.w3.org/2000/svg"
   xmlns="http://www.w3.org/2000/svg"
   xmlns:sodipodi="http://sodipodi.sourceforge.net/DTD/sodipodi-0.dtd"
   xmlns:inkscape="http://www.inkscape.org/namespaces/inkscape"
   width="297mm"
   height="210mm"
   id="svg2991"
   version="1.1"
   inkscape:version="0.48.4 r9939"
   sodipodi:docname="TwinsOnBoard.svg">
  <defs
     id="defs2993" />
  <sodipodi:namedview
     inkscape:document-units="mm"
     pagecolor="#ffffff"
     bordercolor="#666666"
     borderopacity="1.0"
     inkscape:pageopacity="0.0"
     inkscape:pageshadow="2"
     inkscape:zoom="0.45"
     inkscape:cx="121.11111"
     inkscape:cy="380"
     inkscape:current-layer="layer1"
     id="namedview2995"
     showgrid="false"
     inkscape:window-width="1462"
     inkscape:window-height="733"
     inkscape:window-x="234"
     inkscape:window-y="234"
     inkscape:window-maximized="0" />
  <metadata
     id="metadata2997">
    <rdf:RDF>
      <cc:Work
         rdf:about="">
        <dc:format>image/svg+xml</dc:format>
        <dc:type
           rdf:resource="http://purl.org/dc/dcmitype/StillImage" />
        <dc:title></dc:title>
      </cc:Work>
    </rdf:RDF>
  </metadata>
  <g
     inkscape:label="Layer 1"
     inkscape:groupmode="layer"
     id="layer1">
    <g
       id="g3846"
       transform="translate(42,0)">
      <g
         id="g3834">
        <path
           style="fill:#ffff00;fill-opacity:1;fill-rule:evenodd;stroke:none"
           d="m 369.0625,22.21875 c -6.8865,2e-6 -13.75446,2.629459 -19.03125,7.90625 L 26.1875,354 c -10.553583,10.55358 -10.553583,27.54017 0,38.09375 L 350.03125,715.9375 c 10.55358,10.55358 27.54017,10.55358 38.09375,0 l 79.625,-79.625 79.65625,79.625 c 10.55359,10.55358 27.54016,10.55359 38.09375,0 L 909.34375,392.09375 c 10.5536,-10.55359 10.5536,-27.54017 0,-38.09375 L 585.5,30.125 c -10.55359,-10.553583 -27.54017,-10.553583 -38.09375,0 L 467.75,109.78125 388.125,30.125 c -5.27679,-5.276791 -12.176,-7.906252 -19.0625,-7.90625 z"
           id="rect3000"
           inkscape:connector-curvature="0" />
        <path
           style="fill:none;stroke:#000000;stroke-width:8.07874012;stroke-linecap:butt;stroke-linejoin:miter;stroke-miterlimit:4;stroke-opacity:1"
           d="m 369.0625,50.28125 c -6.33558,0 -12.64535,2.426601 -17.5,7.28125 L 53.625,355.5 c -9.709297,9.7093 -9.709297,25.3532 0,35.0625 L 351.5625,688.5 c 9.7093,9.7093 25.32195,9.7093 35.03125,0 L 467.75,607.34375 548.90625,688.5 c 9.7093,9.7093 25.3532,9.7093 35.0625,0 l 297.9375,-297.9375 c 9.7093,-9.7093 9.7093,-25.3532 0,-35.0625 L 583.96875,57.5625 c -9.7093,-9.709297 -25.3532,-9.709297 -35.0625,0 L 467.75,138.71875 386.59375,57.5625 C 381.7391,52.707851 375.39808,50.28125 369.0625,50.28125 z"
           id="rect3000-1"
           inkscape:connector-curvature="0" />
      </g>
      <text
         sodipodi:linespacing="80.000001%"
         id="text3838"
         y="296.21014"
         x="467.41406"
         style="font-size:144px;font-style:normal;font-variant:normal;font-weight:bold;font-stretch:normal;text-align:center;line-height:80.00000119%;letter-spacing:-4.41999626px;word-spacing:0px;text-anchor:middle;fill:#000000;fill-opacity:1;stroke:none;font-family:Segoe WP;-inkscape-font-specification:Segoe WP Bold"
         xml:space="preserve"><tspan
           y="296.21014"
           x="465.20407"
           id="tspan3840"
           sodipodi:role="line">TWINS</tspan><tspan
           id="tspan3842"
           y="411.41016"
           x="465.20407"
           sodipodi:role="line">ON</tspan><tspan
           id="tspan3844"
           y="526.61017"
           x="465.20407"
           sodipodi:role="line">BOARD!</tspan></text>
    </g>
  </g>
</svg>
